<?xml version="1.0" encoding="utf-8"?>
<!-- Generator: Adobe Illustrator 25.2.3, SVG Export Plug-In . SVG Version: 6.00 Build 0)  -->
<svg version="1.1" id="Layer_1" xmlns="http://www.w3.org/2000/svg" xmlns:xlink="http://www.w3.org/1999/xlink" x="0px" y="0px"
	 viewBox="0 0 880.3 94.9" style="enable-background:new 0 0 880.3 94.9;" xml:space="preserve">
<style type="text/css">
	.st0{fill:#FFFFFF;}
</style>
<path class="st0" d="M288.6,65.5c0,7.6,3.8,18,21,18c17,0,21-10.2,21-17.8V53h-17v14c0,2.1,0,5.2-3.8,5.2c-3.8,0-3.8-3.1-3.8-5.2
	V33.8c0-2.1,0-5.2,3.8-5.2c3.8,0,3.8,3.1,3.8,5.2V43h17V35c0-7.6-3.8-18-21-18c-17,0-21,10.2-21,17.8V65.5z"/>
<path class="st0" d="M335.4,71.5c0,10.2,5.7,11.4,12.9,11.4h4.1V30.5h4.3V17.9h-4.3V1.5h-17v16.4h-4.3v12.6h4.3V71.5z"/>
<path class="st0" d="M359,83.1h17v-65h-17V83.1z M359,13.6h17V1.5h-17V13.6z"/>
<path class="st0" d="M388.9,83.1l19.8,0.2l11.7-65.2h-17l-4.3,41.7h-0.2l-4.1-41.7h-17.4L388.9,83.1z"/>
<path class="st0" d="M243.2,65.3c0,7.6,3.8,18,21,18c17,0,21-10.2,21-17.8v-6.9h-17v8.1c0,2.1,0,5.2-3.8,5.2c-3.8,0-3.8-3.1-3.8-5.2
	v-14h24.8v-18c0-7.6-3.8-18-21-18c-17,0-21,10.2-21,17.8v30.8H243.2z M260.4,33.5c0-2.1,0-5.2,3.8-5.2c3.8,0,3.8,3.1,3.8,5.2v7.1
	h-7.6V33.5z"/>
<path class="st0" d="M419.7,66c0,7.6,3.8,18,21,18c17,0,21-10.2,21-17.8v-6.9h-17v8.1c0,2.1,0,5.2-3.8,5.2s-3.8-3.1-3.8-5.2v-14
	h24.8v-18c0-7.6-3.8-18-21-18c-17,0-21,10.2-21,17.8V66H419.7z M436.8,34.2c0-2.1,0-5.2,3.8-5.2c3.8,0,3.8,3.1,3.8,5.2v7.1h-7.6
	V34.2z"/>
<path class="st0" d="M143.4,21.4c0-2.8,0-7.3,5.3-7.3c5.3,0,5.3,4.7,5.3,7.3v40.3c0,2.1,0,7.3-5.3,7.3c-5.3,0-5.3-5.2-5.3-7.3V21.4z
	 M125.2,60.1c0,14.5,9.1,23,23.4,23c14.6,0,23.4-8.3,23.4-22.8V23.1c0-15.9-9.8-23-23.4-23S125.2,7,125.2,22.9V60.1z"/>
<path class="st0" d="M193.5,66.5c0,2.1,0,5.2,3.8,5.2c3.8,0,3.8-3.1,3.8-5.2V33.3c0-2.1,0-5.2-3.8-5.2c-3.8,0-3.8,3.1-3.8,5.2V66.5z
	 M193.5,81.2v1.2h-17V1.1h17v17.1c1.2-0.9,3.8-1.7,5.3-1.7c16,0,19.6,10.4,19.6,18v30.6c0,7.6-3.6,18-19.1,17.8
	C197.8,83.1,194.7,82.4,193.5,81.2z"/>
<path class="st0" d="M222.4,94.9h4.1c11.9,0,13.1-7.3,13.1-17.1V17.7h-17v77.3"/>
<path class="st0" d="M222.4,1.3h17v11.9h-17V1.3z"/>
<path class="st0" d="M482.2,17.7h7.3v66.1h-7.3V17.7z"/>
<path class="st0" d="M504.8,17.7h12l21,59.9V17.7h7.3v66.1h-12l-21-60.1v60.1h-7.3V17.7z"/>
<path class="st0" d="M553.3,17.7H595v6.6h-17.2v59.5h-7.3V24.4h-17.2V17.7z"/>
<path class="st0" d="M602.5,83.8V17.7h32.8v6.6h-25.5v21.9h23.9v6.6h-23.9v24.3h25.7v6.6H602.5z"/>
<path class="st0" d="M665,56.4v-6.6h21.8v34.8h-5.6V73.8c-2.1,7.8-7.2,11.7-15.3,11.7c-6.9,0-12.1-2.6-15.7-7.8
	c-3.6-5.2-5.4-13.9-5.4-26.2c0-12.6,1.8-21.7,5.3-27.2c3.6-5.6,9-8.3,16.3-8.3c6.3,0,11.1,1.8,14.5,5.5c3.4,3.7,5.2,8.7,5.2,15.1
	h-7.5c-0.4-9.3-4.5-14-12.3-14c-5,0-8.5,2.1-10.7,6.4c-2.2,4.3-3.3,11.9-3.3,22.8c0,10.4,1.1,17.5,3.3,21.3
	c2.2,3.8,5.6,5.7,10.4,5.7c5.2,0,8.8-2.1,10.6-6.2c1.9-4.1,2.8-9.6,2.8-16.3H665z"/>
<path class="st0" d="M743.4,83.8h-8.7c-0.8-3-1.3-5.7-1.6-8.1c-0.3-2.4-0.4-4.9-0.4-7.4c0-4.7-1-8.1-3.1-10.2
	c-2-2.2-4.8-3.2-8.3-3.2h-12.5v28.9h-7.3V17.7h17.3c8.3,0,14,1.6,17,4.7c3.1,3.1,4.6,7.4,4.6,12.9c0,9.2-4.3,14.5-12.9,15.8
	c4.5,0.6,7.6,1.8,9.2,3.7c1.6,1.9,2.5,4.6,2.7,8.3c0.1,3.3,0.6,8.1,1.4,14.3c0.5,3,1.4,4.6,2.6,4.7V83.8z M732.9,36.1
	c0-7.9-4.6-11.8-13.9-11.8h-10.3v23.9h11.5C728.6,48.3,732.9,44.2,732.9,36.1z"/>
<path class="st0" d="M748.6,83.8l18.6-66.1h9.7l18.6,66.1h-8.1l-5.1-18.9h-20.8l-4.7,18.9H748.6z M763.3,58.3h17.3l-8.6-35.6
	L763.3,58.3z"/>
<path class="st0" d="M798.2,17.7h41.7v6.6h-17.2v59.5h-7.3V24.4h-17.2V17.7z"/>
<path class="st0" d="M847.3,83.8V17.7h32.8v6.6h-25.5v21.9h23.9v6.6h-23.9v24.3h25.7v6.6H847.3z"/>
<path class="st0" d="M32.9,0H67l8.4,15H41.3L29.9,34.1L44.3,61H27.5L13.2,34.1L32.9,0z"/>
<path class="st0" d="M78.4,22.7H47.8l-8.4,15H70l11.4,19.1L64.6,85.5h16.7l16.7-28.7L78.4,22.7z"/>
<path class="st0" d="M57.4,85l14.1-26l-8.8-14.7L47.1,70.2l-22.3,0.3L8.4,41.6L0,56.1L16.5,85L57.4,85z"/>
</svg>
