<?xml version="1.0" encoding="utf-8"?>
<!-- Generator: Adobe Illustrator 25.2.3, SVG Export Plug-In . SVG Version: 6.00 Build 0)  -->
<svg version="1.1" id="Layer_1" xmlns="http://www.w3.org/2000/svg" xmlns:xlink="http://www.w3.org/1999/xlink" x="0px" y="0px"
	 viewBox="0 0 1087.1 132.7" style="enable-background:new 0 0 1087.1 132.7;" xml:space="preserve">
<style type="text/css">
	.st0{fill:#FFFFFF;}
	.st1{fill-rule:evenodd;clip-rule:evenodd;fill:#FFFFFF;}
</style>
<g>
	<g>
		<path class="st0" d="M656.3,118.6V27h9.1v91.7H656.3z"/>
		<path class="st0" d="M722,118.6l-31.9-76.3h-0.4v76.3h-8.5V27h11.3l31.7,76.3h0.4V27h8.3v91.7H722z"/>
		<path class="st0" d="M764.7,34.7v83.9h-8.9V34.7h-17.6V27h44.3v7.8H764.7z"/>
		<path class="st0" d="M787.7,118.6V27h36.9v8h-28.1v32.1h26.3v7.8h-26.3v35.6h29.4v8.2H787.7z"/>
		<path class="st0" d="M877.8,118.3c-3.6,1.3-7.8,2-12.6,2c-5.1,0-9.7-1.1-13.7-3.4c-4.1-2.2-7.5-5.4-10.2-9.6
			c-2.8-4.1-4.9-9.1-6.3-15c-1.5-5.9-2.2-12.4-2.2-19.7c0-6.8,0.7-13.2,2.1-19c1.4-5.9,3.5-10.9,6.1-15.2c2.7-4.3,6-7.6,9.8-10
			c3.9-2.4,8.3-3.6,13.2-3.6c4.5,0,8.6,0.9,12.3,2.7c3.7,1.8,6.8,4.7,9.3,8.5l-5.8,6c-2-3-4.3-5.3-6.9-6.8c-2.6-1.5-5.5-2.3-8.5-2.3
			c-3.8,0-7.1,1.1-9.8,3.2c-2.8,2.1-5.1,5-6.9,8.6c-1.9,3.6-3.2,7.8-4.1,12.6s-1.4,9.9-1.4,15.3c0,5.7,0.5,11,1.4,15.8
			c0.9,4.8,2.4,9,4.3,12.5c1.9,3.5,4.4,6.2,7.2,8.2c2.9,2,6.2,3,10,3c2.8,0,5.2-0.3,7.4-1c2.2-0.7,4-1.7,5.5-3V77.1H865v-7.8h21.9
			v43.6C884.4,115.2,881.4,117,877.8,118.3z"/>
		<path class="st0" d="M938.1,118.6l-16.6-42.5h-11.8v42.5h-8.9V27h22c3,0,5.9,0.4,8.7,1.2c2.8,0.8,5.3,2.2,7.5,4.1
			c2.2,1.9,4,4.4,5.3,7.5c1.3,3.1,2,6.9,2,11.4c0,3.9-0.5,7.2-1.5,10c-1,2.8-2.3,5.2-3.9,7.1c-1.6,1.9-3.4,3.4-5.3,4.4
			c-1.9,1-3.9,1.7-5.8,1.9l17.9,44H938.1z M937.5,51.6c0-3.3-0.5-6-1.4-8.2c-0.9-2.2-2.1-3.9-3.6-5.2c-1.5-1.3-3.2-2.2-5.2-2.7
			c-1.9-0.5-3.9-0.8-6-0.8h-11.7V69h12c4.9,0,8.8-1.5,11.6-4.6C936.1,61.4,937.5,57.1,937.5,51.6z"/>
		<path class="st0" d="M996.4,118.6l-5.6-22.9h-28.2l-5.8,22.9h-9.2L970.9,27h12.3l22.7,91.7H996.4z M977.1,35.1h-0.5l-12.7,53.3
			h25.6L977.1,35.1z"/>
		<path class="st0" d="M1025.8,34.7v83.9h-8.9V34.7h-17.6V27h44.3v7.8H1025.8z"/>
		<path class="st0" d="M1048.9,118.6V27h36.9v8h-28.1v32.1h26.3v7.8h-26.3v35.6h29.4v8.2H1048.9z"/>
	</g>
	<g>
		<g>
			<path class="st0" d="M388.5,92.6c0,10.3,5.2,24.6,28.7,24.6c23.1,0,28.7-13.9,28.7-24.3V75.4h-23.1v19.1c0,2.9,0,7.1-5.2,7.1
				c-5.2,0-5.2-4.2-5.2-7.1V49.2c0-2.9,0-7.1,5.2-7.1c5.2,0,5.2,4.2,5.2,7.1v12.6h23.1v-11c0-10.3-5.2-24.6-28.7-24.6
				c-23.1,0-28.7,13.9-28.7,24.3V92.6z"/>
		</g>
		<g>
			<path class="st0" d="M452.4,100.7c0,13.9,7.8,15.5,17.6,15.5h5.5V44.7h5.9V27.6h-5.9V5.3h-23.1v22.3h-5.9v17.1h5.9V100.7z"/>
		</g>
		<g>
			<path class="st1" d="M484.6,116.5h23.1V27.9h-23.1V116.5z M484.6,21.8h23.1V5.3h-23.1V21.8z"/>
		</g>
		<g>
			<path class="st1" d="M525.3,116.5l27,0.3l16-88.9h-23.1l-5.9,56.9H539l-5.5-56.9h-23.8L525.3,116.5z"/>
		</g>
		<g>
			<path class="st1" d="M326.7,92.2c0,10.3,5.2,24.6,28.7,24.6c23.1,0,28.7-13.9,28.7-24.3v-9.4h-23.1v11c0,2.9,0,7.1-5.2,7.1
				c-5.2,0-5.2-4.2-5.2-7.1V75.1h33.9V50.5c0-10.3-5.2-24.6-28.7-24.6C332.5,26,327,39.9,327,50.2v42H326.7z M350.1,48.9
				c0-2.9,0-7.1,5.2-7.1c5.2,0,5.2,4.2,5.2,7.1v9.7h-10.4V48.9z"/>
		</g>
		<g>
			<path class="st1" d="M567.3,93.2c0,10.3,5.2,24.6,28.7,24.6c23.1,0,28.7-13.9,28.7-24.3v-9.4h-23.1v11c0,2.9,0,7.1-5.2,7.1
				c-5.2,0-5.2-4.2-5.2-7.1V76.1H625V51.5c0-10.3-5.2-24.6-28.7-24.6c-23.1,0-28.7,13.9-28.7,24.3v42H567.3z M590.8,49.9
				c0-2.9,0-7.1,5.2-7.1c5.2,0,5.2,4.2,5.2,7.1v9.7h-10.4V49.9z"/>
		</g>
		<g>
			<path class="st1" d="M190.5,32.4c0-3.9,0-10,7.2-10c7.2,0,7.2,6.5,7.2,10v55c0,2.9,0,10-7.2,10c-7.2,0-7.2-7.1-7.2-10V32.4z
				 M165.8,85.1c0,19.7,12.4,31.4,31.9,31.4c19.9,0,31.9-11.3,31.9-31V34.7c0-21.7-13.4-31.4-31.9-31.4s-31.9,9.4-31.9,31V85.1z"/>
		</g>
		<g>
			<path class="st1" d="M258.9,93.9c0,2.9,0,7.1,5.2,7.1c5.2,0,5.2-4.2,5.2-7.1V48.6c0-2.9,0-7.1-5.2-7.1c-5.2,0-5.2,4.2-5.2,7.1
				V93.9z M258.9,113.9v1.6h-23.1V4.6h23.1v23.3c1.6-1.3,5.2-2.3,7.2-2.3c21.8,0,26.7,14.2,26.7,24.6v41.7
				c0,10.3-4.9,24.6-26.1,24.3C264.8,116.5,260.5,115.5,258.9,113.9z"/>
		</g>
		<g>
			<path class="st0" d="M298.3,132.7h5.5c16.3,0,17.9-10,17.9-23.3V27.3h-23.1v105.4"/>
		</g>
		<g>
			<path class="st0" d="M298.3,4.9h23.1v16.2h-23.1V4.9z"/>
		</g>
	</g>
	<g>
		<path class="st0" d="M87.5,55.5L64.1,95.7c-0.3,0.4-0.7,0.7-1.2,0.7l-25.9-0.3c-0.5,0-1-0.3-1.2-0.7L12.9,55.6
			c-0.5-0.9-1.9-1-2.5,0L0.2,73.3c-0.3,0.4-0.3,1,0,1.4L24.6,117c0.3,0.4,0.7,0.7,1.2,0.7h48.8c0.5,0,1-0.3,1.2-0.7l24.4-42.3
			c0.3-0.4,0.3-1,0-1.4L90,55.5C89.4,54.6,88.1,54.6,87.5,55.5z"/>
	</g>
	<g>
		<path class="st0" d="M50.9,51l46.5,0.2c0.5,0,1,0.3,1.2,0.7l12.8,22.6c0.2,0.4,0.2,1,0,1.4l-23,39.7c-0.5,0.9,0.1,2.1,1.2,2.1
			l20.5,0c0.5,0,1-0.3,1.2-0.7l24.3-42.3c0.3-0.4,0.3-1,0-1.4L111.2,31c-0.3-0.4-0.7-0.7-1.2-0.7l-48.8,0.1c-0.5,0-1,0.3-1.2,0.7
			L49.7,48.9C49.2,49.9,49.8,51,50.9,51z"/>
	</g>
	<g>
		<path class="st0" d="M101,20.6l-46.5,0.4c-0.5,0-1,0.3-1.2,0.7L40.6,44.3c-0.2,0.4-0.2,1,0,1.4l23.2,39.6c0.6,0.9-0.1,2.1-1.2,2.1
			l-20.5,0c-0.5,0-1-0.3-1.2-0.7L16.4,44.6c-0.3-0.4-0.3-1,0-1.4L40.7,0.8c0.3-0.4,0.7-0.7,1.2-0.7L90.7,0c0.5,0,1,0.3,1.2,0.7
			l10.3,17.8C102.8,19.4,102.1,20.6,101,20.6z"/>
	</g>
</g>
</svg>
