<svg id="Layer_1" data-name="Layer 1" xmlns="http://www.w3.org/2000/svg" viewBox="0 0 1087.06 132.67"><defs><style>.cls-1,.cls-2{fill:#fff;}.cls-2{fill-rule:evenodd;}</style></defs><path class="cls-1" d="M656.35,118.63V27h9.06v91.66Z"/><path class="cls-1" d="M722,118.63,690.14,42.37h-.39v76.26H681.2V27h11.27l31.72,76.25h.38V27h8.29v91.66Z"/><path class="cls-1" d="M764.71,34.73v83.9h-8.94V34.73h-17.6V27h44.27v7.76Z"/><path class="cls-1" d="M787.75,118.63V27h36.9v8h-28.1V67.1h26.28v7.77H796.55v35.6h29.39v8.16Z"/><path class="cls-1" d="M877.79,118.31a36.21,36.21,0,0,1-12.62,2,27.82,27.82,0,0,1-13.73-3.37,29.16,29.16,0,0,1-10.22-9.58,47.55,47.55,0,0,1-6.35-15,81.11,81.11,0,0,1-2.2-19.68,80.25,80.25,0,0,1,2.14-19A51.15,51.15,0,0,1,841,38.42a30.76,30.76,0,0,1,9.84-10A24.5,24.5,0,0,1,864,24.77a27.67,27.67,0,0,1,12.3,2.71A23.24,23.24,0,0,1,885.62,36L879.79,42a20.68,20.68,0,0,0-6.92-6.79,16.76,16.76,0,0,0-8.48-2.27,15.74,15.74,0,0,0-9.84,3.17,25.07,25.07,0,0,0-6.93,8.61,47.08,47.08,0,0,0-4.14,12.63,83,83,0,0,0-1.36,15.34,81.93,81.93,0,0,0,1.43,15.79A42.14,42.14,0,0,0,847.88,101a23.73,23.73,0,0,0,7.25,8.23,17.34,17.34,0,0,0,10,3,24.83,24.83,0,0,0,7.44-1,15,15,0,0,0,5.5-3V77.07H865V69.3h21.88V113A28.57,28.57,0,0,1,877.79,118.31Z"/><path class="cls-1" d="M938.05,118.63,921.48,76.16H909.7v42.47h-8.93V27h22a31,31,0,0,1,8.74,1.23A20,20,0,0,1,939,32.27a20.45,20.45,0,0,1,5.31,7.51,28.79,28.79,0,0,1,2,11.4,30.19,30.19,0,0,1-1.49,10A22.53,22.53,0,0,1,941,68.26a18.06,18.06,0,0,1-5.3,4.41,17.41,17.41,0,0,1-5.77,1.94l17.87,44Zm-.52-67a21.44,21.44,0,0,0-1.36-8.19,13.43,13.43,0,0,0-3.62-5.22,13.09,13.09,0,0,0-5.18-2.71,23.17,23.17,0,0,0-6-.78H909.7V69h12q7.38,0,11.59-4.58T937.53,51.63Z"/><path class="cls-1" d="M996.44,118.63l-5.57-22.92H962.65l-5.83,22.92h-9.19L970.93,27h12.3l22.66,91.66ZM977.15,35.12h-.52L963.94,88.46h25.64Z"/><path class="cls-1" d="M1025.82,34.73v83.9h-8.93V34.73h-17.6V27h44.27v7.76Z"/><path class="cls-1" d="M1048.87,118.63V27h36.89v8h-28.09V67.1H1084v7.77h-26.28v35.6h29.39v8.16Z"/><path class="cls-1" d="M388.53,92.57c0,10.34,5.21,24.57,28.66,24.57,23.13,0,28.67-13.9,28.67-24.25V75.43H422.73V94.51c0,2.91,0,7.11-5.21,7.11s-5.21-4.2-5.21-7.11V49.24c0-2.91,0-7.12,5.21-7.12s5.21,4.21,5.21,7.12V61.85h23.13v-11c0-10.34-5.21-24.57-28.67-24.57-23.12,0-28.66,13.9-28.66,24.25Z"/><path class="cls-1" d="M452.38,100.66c0,13.9,7.82,15.52,17.59,15.52h5.54V44.72h5.86V27.58h-5.86V5.27H452.38V27.58h-5.86V44.72h5.86Z"/><path class="cls-2" d="M484.63,116.5h23.13V27.9H484.63Zm0-94.74h23.13V5.27H484.63Z"/><path class="cls-2" d="M525.35,116.49l27,.32,16-88.92H545.21L539.35,84.8H539l-5.54-56.91H509.71Z"/><path class="cls-2" d="M326.66,92.25c0,10.34,5.21,24.57,28.66,24.57,23.12,0,28.66-13.9,28.66-24.25V83.19H360.86v11c0,2.91,0,7.11-5.22,7.11s-5.21-4.2-5.21-7.11V75.11h33.88V50.53c0-10.34-5.21-24.57-28.67-24.57C332.52,26,327,39.86,327,50.21v42Zm23.45-43.33c0-2.91,0-7.12,5.21-7.12s5.21,4.21,5.21,7.12v9.7H350.11Z"/><path class="cls-2" d="M567.35,93.2c0,10.35,5.21,24.58,28.66,24.58,23.13,0,28.67-13.91,28.67-24.26V84.15H601.55v11c0,2.91,0,7.12-5.21,7.12s-5.21-4.21-5.21-7.12V76.06H625V51.49c0-10.35-5.21-24.58-28.66-24.58-23.13,0-28.66,13.91-28.66,24.25v42ZM590.8,49.87c0-2.91,0-7.11,5.21-7.11s5.21,4.2,5.21,7.11v9.7H590.8Z"/><path class="cls-2" d="M190.51,32.42c0-3.88,0-10,7.16-10s7.17,6.47,7.17,10v55c0,2.91,0,10-7.17,10s-7.16-7.12-7.16-10ZM165.75,85.13c0,19.72,12.38,31.36,31.92,31.36,19.87,0,31.92-11.31,31.92-31V34.69c0-21.67-13.35-31.37-31.92-31.37s-31.92,9.38-31.92,31Z"/><path class="cls-2" d="M258.9,93.86c0,2.91,0,7.11,5.21,7.11s5.21-4.2,5.21-7.11V48.59c0-2.91,0-7.11-5.21-7.11s-5.21,4.2-5.21,7.11Zm0,20v1.62H235.77V4.61H258.9V27.9a14.33,14.33,0,0,1,7.16-2.27c21.83,0,26.71,14.23,26.71,24.58V91.92c0,10.35-4.88,24.58-26,24.25C264.76,116.5,260.53,115.53,258.9,113.91Z"/><path class="cls-1" d="M298.32,132.67h5.53c16.29,0,17.92-10,17.92-23.28V27.25H298.64V132.67"/><path class="cls-1" d="M298.32,4.93h23.12V21.1H298.32Z"/><path class="cls-1" d="M87.54,55.54,64.05,95.71a1.41,1.41,0,0,1-1.23.7L36.9,96.13a1.43,1.43,0,0,1-1.22-.72L12.9,55.57a1.42,1.42,0,0,0-2.46,0L.19,73.32a1.44,1.44,0,0,0,0,1.42L24.59,117a1.44,1.44,0,0,0,1.23.7H74.63a1.42,1.42,0,0,0,1.22-.7l24.41-42.27a1.44,1.44,0,0,0,0-1.42L90,55.54A1.42,1.42,0,0,0,87.54,55.54Z"/><path class="cls-1" d="M50.93,51l46.53.17a1.44,1.44,0,0,1,1.23.72L111.45,74.5a1.42,1.42,0,0,1,0,1.41l-23,39.69a1.42,1.42,0,0,0,1.23,2.13l20.51,0a1.41,1.41,0,0,0,1.22-.71l24.33-42.3a1.39,1.39,0,0,0,0-1.42L111.2,31a1.4,1.4,0,0,0-1.22-.7l-48.81.08a1.41,1.41,0,0,0-1.23.71L49.71,48.92A1.41,1.41,0,0,0,50.93,51Z"/><path class="cls-1" d="M101,20.59,54.49,21a1.4,1.4,0,0,0-1.22.72L40.6,44.28a1.39,1.39,0,0,0,0,1.41l23.2,39.6a1.42,1.42,0,0,1-1.22,2.14l-20.51,0a1.42,1.42,0,0,1-1.22-.7L16.36,44.55a1.44,1.44,0,0,1,0-1.42L40.67.82A1.45,1.45,0,0,1,41.9.1L90.71,0a1.44,1.44,0,0,1,1.23.71l10.3,17.75A1.42,1.42,0,0,1,101,20.59Z"/></svg>