<svg width="60" height="60" viewBox="0 0 60 60" fill="none" xmlns="http://www.w3.org/2000/svg">
<path d="M21.1006 17.6715L28.9424 4.51591C28.9768 4.44712 29.0284 4.37833 29.0972 4.30954C29.1659 4.24076 29.2347 4.18917 29.3035 4.15477C29.4067 4.12038 29.4927 4.08598 29.5615 4.05159C29.6647 4.0172 29.7678 4 29.871 4C29.9742 4 30.0602 4.0172 30.129 4.05159C30.2322 4.08598 30.3181 4.12038 30.3869 4.15477C30.4901 4.18917 30.5761 4.24076 30.6449 4.30954C30.7137 4.37833 30.7653 4.44712 30.7997 4.51591L48.5985 35.3156C48.6328 35.3844 48.6672 35.4703 48.7016 35.5735C48.736 35.6423 48.7532 35.7283 48.7532 35.8315C48.7532 35.9347 48.736 36.0378 48.7016 36.141C48.6672 36.2098 48.6328 36.2958 48.5985 36.399C48.5297 36.4678 48.4609 36.5365 48.3921 36.6053C48.3233 36.6741 48.2545 36.7429 48.1857 36.8117C48.1169 36.8461 48.031 36.8805 47.9278 36.9149C47.8246 36.9149 47.7214 36.9149 47.6182 36.9149L32.2442 36.9665C32.1754 36.9665 32.0894 36.9493 31.9862 36.9149C31.8831 36.8805 31.7971 36.8461 31.7283 36.8117C31.6595 36.7773 31.5907 36.7257 31.5219 36.6569C31.4531 36.5881 31.3844 36.5021 31.3156 36.399L21.1006 18.7549C21.0318 18.6862 20.9802 18.6174 20.9458 18.5486C20.9458 18.4454 20.9458 18.3422 20.9458 18.239C20.9458 18.1359 20.9458 18.0327 20.9458 17.9295C20.9802 17.8263 21.0318 17.7403 21.1006 17.6715ZM52.4162 41.3517C52.3818 41.2485 52.3302 41.1625 52.2614 41.0937C52.1926 41.0249 52.1066 40.9733 52.0034 40.939C51.9347 40.8702 51.8487 40.8358 51.7455 40.8358C51.6423 40.8014 51.5391 40.7842 51.4359 40.7842L31.0576 40.8358C30.9544 40.8358 30.8512 40.853 30.7481 40.8874C30.6449 40.9218 30.5589 40.9561 30.4901 40.9905C30.3869 41.0593 30.3009 41.1281 30.2322 41.1969C30.1634 41.2313 30.1118 41.3001 30.0774 41.4033L22.442 54.7137C22.3732 54.7825 22.3216 54.8684 22.2872 54.9716C22.2872 55.0748 22.2872 55.178 22.2872 55.2812C22.2872 55.35 22.2872 55.4359 22.2872 55.5391C22.3216 55.6423 22.3732 55.7283 22.442 55.7971C22.4764 55.9003 22.5279 55.969 22.5967 56.0034C22.6655 56.0722 22.7343 56.141 22.8031 56.2098C22.9063 56.2442 22.9923 56.2786 23.061 56.313C23.1642 56.3474 23.2674 56.3646 23.3706 56.3646L58.9166 56.313C58.9854 56.313 59.0714 56.2958 59.1745 56.2614C59.2777 56.2614 59.3637 56.227 59.4325 56.1582C59.5013 56.1238 59.5701 56.0722 59.6389 56.0034C59.7077 55.9347 59.7764 55.8659 59.8452 55.7971C59.8796 55.6939 59.914 55.5907 59.9484 55.4875C59.9828 55.4187 60 55.3328 60 55.2296C60 55.1608 59.9828 55.0748 59.9484 54.9716C59.914 54.8684 59.8796 54.7825 59.8452 54.7137L52.3646 41.3517H52.4162ZM16.3543 56.4162C16.4574 56.4162 16.5606 56.399 16.6638 56.3646C16.767 56.3302 16.853 56.2958 16.9218 56.2614C17.0249 56.1926 17.1109 56.1238 17.1797 56.055C17.2485 55.9862 17.3001 55.9175 17.3345 55.8487L27.3431 38.1531C27.3775 38.0843 27.3947 37.9983 27.3947 37.8951C27.4291 37.7919 27.4463 37.6887 27.4463 37.5856C27.4463 37.5168 27.4291 37.4308 27.3947 37.3276C27.3947 37.2244 27.3775 37.1384 27.3431 37.0696L19.5013 23.8108C19.4669 23.742 19.4153 23.6733 19.3465 23.6045C19.2777 23.5357 19.1917 23.4841 19.0886 23.4497C19.0198 23.3809 18.9338 23.3465 18.8306 23.3465C18.7618 23.3121 18.6758 23.2949 18.5727 23.2949C18.4695 23.2949 18.3663 23.3121 18.2631 23.3465C18.1943 23.3465 18.1083 23.3809 18.0052 23.4497C17.9364 23.4841 17.8676 23.5357 17.7988 23.6045C17.73 23.6733 17.6612 23.742 17.5924 23.8108L0.154772 54.7653C0.0859845 54.8684 0.0343938 54.9544 0 55.0232C0 55.1264 0 55.2296 0 55.3328C0 55.4015 0 55.4875 0 55.5907C0.0343938 55.6939 0.0859845 55.7799 0.154772 55.8487C0.189166 55.9518 0.240757 56.0206 0.309544 56.055C0.378332 56.1238 0.44712 56.1926 0.515907 56.2614C0.619089 56.2958 0.705073 56.3302 0.773861 56.3646C0.877042 56.399 0.980224 56.4162 1.0834 56.4162H16.3543Z" fill="#BD2841"/>
</svg>
