<svg width="60" height="60" viewBox="0 0 60 60" fill="none" xmlns="http://www.w3.org/2000/svg">
<path d="M44.8242 32.6367L57.5977 44.8242V14.4141L44.8242 26.543C45.0586 27.5586 45.1758 28.5742 45.1758 29.5898C45.1758 30.6055 45.0586 31.6211 44.8242 32.6367ZM33.1055 15.1758L45.5859 3.22266H14.4141L26.8945 15.1758L30 14.8828L33.1055 15.1758ZM26.8945 44.0039L14.4141 56.7773H45.5859L33.1055 44.1797L30 44.4727L26.8945 44.0039ZM43.418 37.6172C42.793 38.8672 41.9727 40 40.957 41.0156C39.9805 41.9922 38.8672 42.793 37.6172 43.418L53.9648 59.6484C54.2383 59.8828 54.5508 60 54.9023 60C55.293 60 55.625 59.8828 55.8984 59.6484L59.6484 55.8984C59.8828 55.625 60 55.293 60 54.9023C60 54.5508 59.8828 54.2383 59.6484 53.9648L43.418 37.6172ZM22.3828 16.582L6.03516 0.351562C5.76172 0.117188 5.42969 0 5.03906 0C4.6875 0 4.375 0.117188 4.10156 0.351562L0.351562 4.10156C0.117188 4.375 0 4.70703 0 5.09766C0 5.44922 0.117188 5.76172 0.351562 6.03516L16.7578 22.3828C17.3438 21.1328 18.125 20.0195 19.1016 19.043C20.0781 18.0273 21.1719 17.207 22.3828 16.582ZM16.582 37.6172L0.351562 53.9648C0.117188 54.2383 0 54.5508 0 54.9023C0 55.293 0.117188 55.625 0.351562 55.8984L4.10156 59.6484C4.375 59.8828 4.6875 60 5.03906 60C5.42969 60 5.76172 59.8828 6.03516 59.6484L22.3828 43.2422C21.1328 42.6562 20 41.875 18.9844 40.8984C18.0078 39.9219 17.207 38.8281 16.582 37.6172ZM43.418 22.3828L59.6484 6.03516C59.8828 5.76172 60 5.44922 60 5.09766C60 4.70703 59.8828 4.375 59.6484 4.10156L55.8984 0.351562C55.625 0.117188 55.293 0 54.9023 0C54.5508 0 54.2383 0.117188 53.9648 0.351562L37.6172 16.582C38.8672 17.207 39.9805 18.0273 40.957 19.043C41.9727 20.0195 42.793 21.1328 43.418 22.3828ZM15.9961 26.543L3.22266 14.4141V44.8242L15.9961 32.6367C15.7617 31.6211 15.6445 30.6055 15.6445 29.5898C15.6445 28.5742 15.7617 27.5586 15.9961 26.543Z" fill="#00893E"/>
</svg>
