<svg width="60" height="60" viewBox="0 0 60 60" fill="none" xmlns="http://www.w3.org/2000/svg">
<path d="M41.5078 51.7007C41.4782 51.7598 41.4339 51.8189 41.3747 51.878C41.3156 51.9372 41.2565 51.9815 41.1973 52.0111H18.714C18.6548 51.9815 18.5957 51.9372 18.5366 51.878C18.507 51.8189 18.4775 51.7598 18.4479 51.7007C18.4183 51.6415 18.4035 51.5676 18.4035 51.4789C18.4035 51.4198 18.4035 51.3607 18.4035 51.3016C18.4035 51.3016 18.4922 50.932 18.6696 50.1929C18.8766 49.4834 19.1279 48.5078 19.4235 47.2661C19.7191 46.054 20.0739 44.6053 20.4878 42.9202C20.9017 41.2646 21.3452 39.4908 21.8182 37.5987C22.6164 34.3762 23.459 30.9911 24.3459 27.4435C25.2328 23.8958 26.0458 20.6438 26.7849 17.6874C27.524 14.731 28.1449 12.2772 28.6475 10.3259C29.15 8.37472 29.4013 7.39911 29.4013 7.39911C29.4309 7.33999 29.4605 7.29564 29.49 7.26608C29.5196 7.20695 29.5639 7.1626 29.6231 7.13304C29.6822 7.10347 29.7413 7.07391 29.8004 7.04435C29.8596 7.01478 29.9187 7 29.9778 7C30.037 7 30.0961 7.01478 30.1552 7.04435C30.2143 7.07391 30.2735 7.10347 30.3326 7.13304C30.3622 7.1626 30.3917 7.20695 30.4213 7.26608C30.4804 7.29564 30.5248 7.33999 30.5543 7.39911C30.5543 7.42868 30.8056 8.44863 31.3082 10.459C31.8108 12.4398 32.4316 14.9379 33.1707 17.9534C33.9394 20.969 34.782 24.2801 35.6984 27.8869C36.5854 31.4642 37.4279 34.864 38.2262 38.0865C38.6696 39.9194 39.0983 41.6341 39.5122 43.2306C39.8965 44.827 40.2365 46.2166 40.5322 47.3991C40.8278 48.5817 41.0643 49.5277 41.2417 50.2372C41.4191 50.9172 41.5078 51.272 41.5078 51.3016C41.5373 51.3607 41.5521 51.4198 41.5521 51.4789C41.5521 51.5676 41.5373 51.6415 41.5078 51.7007ZM24.4789 9.03991C24.3902 9.06948 24.3163 9.11382 24.2572 9.17295C24.1981 9.23208 24.1537 9.2912 24.1242 9.35033L0.0886918 46.1131C0.0591279 46.1722 0.0295639 46.2313 0 46.2905C0 46.32 0 46.3644 0 46.4235C0 46.4826 0 46.5418 0 46.6009C0.0295639 46.66 0.0591279 46.7191 0.0886918 46.7783C0.118256 46.8078 0.14782 46.8374 0.177384 46.867C0.206948 46.9261 0.251293 46.9704 0.310421 47C0.369549 47.0296 0.413895 47.0443 0.443459 47.0443C0.502587 47.0739 0.561715 47.0887 0.620843 47.0887L15.5654 47.133C15.6245 47.133 15.6837 47.1183 15.7428 47.0887C15.8019 47.0591 15.8611 47.0296 15.9202 47C15.9793 46.9704 16.0237 46.9261 16.0532 46.867C16.1123 46.8078 16.1419 46.7339 16.1419 46.6452L25.2772 9.83814C25.3067 9.77901 25.3215 9.71988 25.3215 9.66075C25.3215 9.57206 25.2919 9.48337 25.2328 9.39468C25.2033 9.33555 25.1589 9.27642 25.0998 9.21729C25.0702 9.15817 25.0111 9.11382 24.9224 9.08426C24.8633 9.05469 24.7894 9.03991 24.7007 9.03991C24.612 9.03991 24.5381 9.03991 24.4789 9.03991ZM59.9113 46.0244L35.8758 9.26164H35.9202C35.8611 9.20251 35.8019 9.14338 35.7428 9.08426C35.6837 9.02513 35.6245 8.98078 35.5654 8.95122C35.4767 8.92166 35.388 8.90687 35.2993 8.90687C35.2402 8.90687 35.1663 8.92166 35.0776 8.95122C35.0185 9.01035 34.9594 9.06948 34.9002 9.1286C34.8411 9.15817 34.7967 9.21729 34.7672 9.30599C34.7376 9.36511 34.7228 9.43902 34.7228 9.52772C34.7228 9.61641 34.7376 9.69032 34.7672 9.74945L43.8581 46.5565C43.8877 46.6452 43.9172 46.7191 43.9468 46.7783C43.9764 46.8374 44.0207 46.8817 44.0798 46.9113C44.139 46.9409 44.1981 46.9704 44.2572 47C44.3459 47.0296 44.4198 47.0443 44.4789 47.0443L59.3792 47C59.4383 47 59.4974 46.9852 59.5565 46.9557C59.6157 46.9557 59.6748 46.9409 59.7339 46.9113C59.7635 46.8817 59.7931 46.8374 59.8226 46.7783C59.8817 46.7487 59.9261 46.7044 59.9557 46.6452C59.9852 46.6157 60 46.5713 60 46.5122C60 46.4531 60 46.3939 60 46.3348C60 46.2757 59.9852 46.2313 59.9557 46.2018C59.9557 46.1426 59.9409 46.0835 59.9113 46.0244Z" fill="#20908B"/>
</svg>
