<svg width="60" height="60" viewBox="0 0 60 60" fill="none" xmlns="http://www.w3.org/2000/svg">
<path d="M4.58984 40.9375C4.65495 40.7747 4.7526 40.6608 4.88281 40.5957C5.04557 40.498 5.20833 40.4329 5.37109 40.4004H18.9453C19.0104 40.4004 19.0755 40.4167 19.1406 40.4492C19.2383 40.4818 19.3034 40.5306 19.3359 40.5957C19.401 40.6283 19.4336 40.6771 19.4336 40.7422C19.4661 40.8073 19.4661 40.8724 19.4336 40.9375L16.3574 54.4629C16.3249 54.6257 16.2272 54.7559 16.0645 54.8535C15.9342 54.9512 15.7878 55 15.625 55H0.439453C0.374349 55 0.309245 54.9837 0.244141 54.9512C0.179036 54.9186 0.130208 54.8861 0.0976562 54.8535C0.0325521 54.7884 0 54.7233 0 54.6582C0 54.5931 0.016276 54.5443 0.0488281 54.5117L4.58984 40.9375ZM54.541 40.9375C54.4759 40.7747 54.362 40.6608 54.1992 40.5957C54.069 40.498 53.9225 40.4329 53.7598 40.4004H40.0879C40.0228 40.4004 39.9414 40.4167 39.8438 40.4492C39.7786 40.4818 39.7298 40.5306 39.6973 40.5957C39.6322 40.6283 39.5833 40.6771 39.5508 40.7422C39.5508 40.8073 39.5671 40.8724 39.5996 40.9375L42.6758 54.4629C42.7083 54.5931 42.7734 54.707 42.8711 54.8047C43.0013 54.9023 43.1478 54.9674 43.3105 55H58.5938C58.6589 55 58.724 54.9837 58.7891 54.9512C58.8542 54.9186 58.903 54.8861 58.9355 54.8535C59.0007 54.7884 59.0332 54.7233 59.0332 54.6582C59.0332 54.5931 59.0169 54.5443 58.9844 54.5117L54.541 40.9375ZM29.248 55H38.4277C38.4928 55 38.5579 54.9837 38.623 54.9512C38.6882 54.9512 38.737 54.9186 38.7695 54.8535C38.8346 54.7884 38.8672 54.7233 38.8672 54.6582C38.8997 54.5931 38.8997 54.528 38.8672 54.4629L36.3281 42.1582C36.3281 42.0931 36.2956 42.028 36.2305 41.9629C36.1979 41.8978 36.1328 41.8652 36.0352 41.8652C35.9701 41.8327 35.9049 41.8164 35.8398 41.8164C35.7747 41.8164 35.7096 41.8327 35.6445 41.8652C34.6354 42.3535 33.5938 42.7279 32.5195 42.9883C31.4453 43.2161 30.3548 43.3301 29.248 43.3301H29.1016C27.9948 43.3301 26.888 43.2161 25.7812 42.9883C24.707 42.7279 23.6816 42.3535 22.7051 41.8652C22.64 41.8327 22.5586 41.8164 22.4609 41.8164C22.3958 41.8164 22.3307 41.8327 22.2656 41.8652C22.2005 41.8652 22.1354 41.8978 22.0703 41.9629C22.0378 42.028 22.0215 42.0931 22.0215 42.1582L19.4824 54.4629C19.4499 54.528 19.4336 54.5931 19.4336 54.6582C19.4661 54.7233 19.4987 54.7884 19.5312 54.8535C19.5964 54.9186 19.6615 54.9512 19.7266 54.9512C19.7917 54.9837 19.8568 55 19.9219 55H29.248ZM4.54102 19.0625C4.60612 19.2253 4.70378 19.3555 4.83398 19.4531C4.99674 19.5182 5.17578 19.5671 5.37109 19.5996H18.9453C19.0104 19.5996 19.0755 19.5833 19.1406 19.5508C19.2383 19.5182 19.3034 19.4694 19.3359 19.4043C19.401 19.3717 19.4336 19.3229 19.4336 19.2578C19.4661 19.1927 19.4661 19.1276 19.4336 19.0625L16.4062 5.48828C16.3411 5.35807 16.2435 5.24414 16.1133 5.14648C15.9831 5.04883 15.8203 5 15.625 5H0.439453C0.374349 5 0.309245 5.01628 0.244141 5.04883C0.179036 5.08138 0.130208 5.11393 0.0976562 5.14648C0.0325521 5.21159 0 5.27669 0 5.3418C0 5.4069 0.016276 5.45573 0.0488281 5.48828L4.54102 19.0625ZM54.4434 19.0625C54.3783 19.2253 54.2643 19.3555 54.1016 19.4531C53.9714 19.5182 53.8086 19.5671 53.6133 19.5996H40.0879C40.0228 19.5996 39.9414 19.5833 39.8438 19.5508C39.7786 19.5182 39.7298 19.4694 39.6973 19.4043C39.6322 19.3717 39.5833 19.3229 39.5508 19.2578C39.5508 19.1927 39.5671 19.1276 39.5996 19.0625L42.6758 5.53711C42.7083 5.37435 42.7897 5.24414 42.9199 5.14648C43.0827 5.04883 43.2454 5 43.4082 5H58.5938C58.6589 5 58.724 5.01628 58.7891 5.04883C58.8542 5.08138 58.903 5.11393 58.9355 5.14648C59.0007 5.21159 59.0332 5.27669 59.0332 5.3418C59.0332 5.4069 59.0169 5.45573 58.9844 5.48828L54.4434 19.0625ZM29.248 5H38.4277C38.4928 5 38.5579 5.01628 38.623 5.04883C38.6882 5.04883 38.737 5.08138 38.7695 5.14648C38.8346 5.21159 38.8672 5.27669 38.8672 5.3418C38.8997 5.4069 38.8997 5.47201 38.8672 5.53711L36.3281 17.8418C36.2956 17.9069 36.263 17.972 36.2305 18.0371C36.1979 18.1022 36.1328 18.1348 36.0352 18.1348C35.9701 18.1673 35.9049 18.1836 35.8398 18.1836C35.7747 18.1836 35.7096 18.1673 35.6445 18.1348C34.6354 17.6465 33.5938 17.2884 32.5195 17.0605C31.4453 16.8001 30.3548 16.6699 29.248 16.6699H29.1016C27.9948 16.6699 26.888 16.8001 25.7812 17.0605C24.707 17.2884 23.6816 17.6465 22.7051 18.1348C22.64 18.1673 22.5586 18.1836 22.4609 18.1836C22.3958 18.1836 22.3307 18.1673 22.2656 18.1348C22.2005 18.1348 22.1354 18.1022 22.0703 18.0371C22.0378 17.972 22.0052 17.9069 21.9727 17.8418L19.4824 5.58594C19.4499 5.48828 19.4336 5.4069 19.4336 5.3418C19.4661 5.27669 19.4987 5.22786 19.5312 5.19531C19.5964 5.13021 19.6615 5.08138 19.7266 5.04883C19.7917 5.01628 19.8568 5.01628 19.9219 5.04883H29.248V5ZM0.78125 22.7246H58.252C58.4798 22.7246 58.6589 22.806 58.7891 22.9688C58.9518 23.099 59.0332 23.278 59.0332 23.5059V36.4941C59.0332 36.722 58.9518 36.9173 58.7891 37.0801C58.6589 37.2103 58.4798 37.2754 58.252 37.2754H0.78125C0.553385 37.2754 0.358073 37.2103 0.195312 37.0801C0.0651042 36.9173 0 36.722 0 36.4941V23.5059C0 23.278 0.0651042 23.099 0.195312 22.9688C0.358073 22.806 0.553385 22.7246 0.78125 22.7246Z" fill="#20908B"/>
</svg>
