<svg width="60" height="60" viewBox="0 0 60 60" fill="none" xmlns="http://www.w3.org/2000/svg">
<path d="M14.1482 9.10403C14.0789 9.10403 14.0095 9.12137 13.9402 9.15605C13.8708 9.19072 13.8188 9.24274 13.7841 9.31209C13.7148 9.38145 13.6628 9.4508 13.6281 9.52016C13.6281 9.58951 13.6454 9.65886 13.6801 9.72822L22.4187 50.5085C22.4534 50.6818 22.5401 50.8205 22.6788 50.9246C22.8175 51.0633 22.9909 51.1326 23.199 51.1326H36.9311C37.1391 51.1326 37.3125 51.0633 37.4512 50.9246C37.5899 50.8205 37.6766 50.6818 37.7113 50.5085L46.2419 9.62419C46.2419 9.55483 46.2245 9.48548 46.1899 9.41612C46.1899 9.31209 46.1725 9.24274 46.1378 9.20806C46.0685 9.13871 45.9991 9.08669 45.9298 9.05202C45.8604 9.01734 45.7911 9 45.7217 9L14.1482 9.10403ZM55.1365 31.6268C55.0672 31.7655 54.9632 31.8869 54.8244 31.9909C54.6857 32.0603 54.5297 32.1123 54.3563 32.1469H45.2016C45.1322 32.1469 45.0629 32.1296 44.9935 32.0949C44.9241 32.0603 44.8721 32.0082 44.8375 31.9389C44.7681 31.8695 44.7161 31.8002 44.6814 31.7308C44.6814 31.6615 44.6987 31.5921 44.7334 31.5228L47.8544 17.2705C47.889 17.0624 47.9757 16.9064 48.1144 16.8023C48.2531 16.6983 48.4092 16.6463 48.5826 16.6463H59.6099C59.6792 16.6116 59.7313 16.6116 59.7659 16.6463C59.8353 16.681 59.8873 16.7156 59.922 16.7503C59.9567 16.8197 59.974 16.889 59.974 16.9584C60.0087 16.9931 60.0087 17.0451 59.974 17.1144L55.1365 31.6268ZM5.77373 32.1469C5.60035 32.1123 5.4443 32.0603 5.30559 31.9909C5.20156 31.8869 5.11487 31.7655 5.04551 31.6268L0 17.0104C0 16.941 0 16.889 0 16.8544C0 16.785 0.0173385 16.7156 0.0520156 16.6463C0.12137 16.6116 0.173385 16.5769 0.208062 16.5423C0.277417 16.5076 0.346771 16.4902 0.416125 16.4902H11.3914C11.5995 16.4902 11.7729 16.5596 11.9116 16.6983C12.0503 16.8023 12.137 16.941 12.1717 17.1144L15.2926 31.5228C15.3273 31.5921 15.3273 31.6615 15.2926 31.7308C15.2926 31.8002 15.2579 31.8695 15.1886 31.9389C15.1539 32.0082 15.1019 32.0603 15.0325 32.0949C14.9632 32.1296 14.8765 32.1469 14.7724 32.1469H5.77373ZM11.3914 50.4044C11.4608 50.5431 11.5648 50.6472 11.7035 50.7165C11.8422 50.8205 11.9983 50.8726 12.1717 50.8726H18.7776C18.8817 50.8726 18.9684 50.8552 19.0377 50.8205C19.1071 50.7859 19.1591 50.7512 19.1938 50.7165C19.2631 50.6472 19.2978 50.5605 19.2978 50.4564C19.3325 50.3871 19.3325 50.3177 19.2978 50.2484L16.1769 35.9961C16.1422 35.8227 16.0555 35.684 15.9168 35.58C15.7781 35.4413 15.6047 35.3719 15.3966 35.3719H6.91808C6.84872 35.3719 6.77937 35.3893 6.71001 35.4239C6.67534 35.4586 6.64066 35.4933 6.60598 35.528C6.5713 35.5626 6.53663 35.6147 6.50195 35.684C6.50195 35.7534 6.51929 35.8227 6.55397 35.8921L11.3914 50.4044ZM48.1144 50.8726C48.2531 50.8726 48.3919 50.8205 48.5306 50.7165C48.6693 50.6472 48.7733 50.5431 48.8427 50.4044L53.472 35.736C53.5067 35.7013 53.5067 35.6493 53.472 35.58C53.472 35.5106 53.4547 35.4586 53.42 35.4239C53.3853 35.3546 53.3333 35.3199 53.264 35.3199C53.2293 35.2852 53.1773 35.2679 53.1079 35.2679H44.5774C44.404 35.2679 44.2479 35.3199 44.1092 35.4239C43.9705 35.528 43.8838 35.684 43.8492 35.8921L40.8323 50.2484C40.8323 50.3177 40.8323 50.3871 40.8323 50.4564C40.8323 50.5605 40.8669 50.6472 40.9363 50.7165C40.971 50.7512 41.023 50.7859 41.0923 50.8205C41.1617 50.8552 41.2484 50.8726 41.3524 50.8726H48.1144Z" fill="#C63906"/>
</svg>
