<svg width="60" height="60" viewBox="0 0 60 60" fill="none" xmlns="http://www.w3.org/2000/svg">
<path d="M0.119681 49.3865C0.0398936 49.4398 0 49.5065 0 49.5865C0 49.6666 0.0132979 49.7466 0.0398936 49.8266C0.0930851 49.88 0.159574 49.92 0.239362 49.9466C0.319149 50 0.398936 50.0133 0.478723 49.9867H9.45479C9.61436 49.96 9.76064 49.9066 9.89362 49.8266C10.0266 49.7466 10.133 49.6399 10.2128 49.5065L23.4973 9.61353C23.5771 9.56018 23.617 9.49349 23.617 9.41347C23.617 9.33344 23.6037 9.25342 23.5771 9.17339C23.5239 9.12004 23.4574 9.08003 23.3777 9.05335C23.2979 9 23.2181 8.98666 23.1383 9.01334H14.1622C14.0027 9.04001 13.8564 9.09336 13.7234 9.17339C13.5904 9.25342 13.484 9.36012 13.4043 9.49349L0.119681 49.3865ZM59.8803 49.3865C59.9601 49.4398 60 49.5065 60 49.5865C60 49.6666 59.9867 49.7466 59.9601 49.8266C59.9069 49.88 59.8404 49.92 59.7606 49.9466C59.6809 50 59.6011 50.0133 59.5213 49.9867H50.5452C50.3856 49.96 50.2394 49.9066 50.1064 49.8266C49.9734 49.7466 49.867 49.6399 49.7872 49.5065L36.5027 9.61353C36.4229 9.56018 36.383 9.49349 36.383 9.41347C36.383 9.33344 36.3963 9.25342 36.4229 9.17339C36.4761 9.12004 36.5426 9.08003 36.6223 9.05335C36.7021 9 36.7819 8.98666 36.8617 9.01334H45.8378C45.9973 9.04001 46.1436 9.09336 46.2766 9.17339C46.4096 9.25342 46.516 9.36012 46.5957 9.49349L59.8803 49.3865ZM31.9149 10.2938C32.1543 10.2938 32.3404 10.3738 32.4734 10.5338C32.6064 10.6939 32.7128 10.9073 32.7926 11.174L40.2128 33.9815C39.7872 32.8878 39.2154 31.9008 38.4973 31.0205C37.7793 30.1135 36.9548 29.3533 36.0239 28.7398C35.1197 28.0995 34.1356 27.6061 33.0718 27.2593C31.9814 26.9125 30.8511 26.7391 29.6809 26.7391C28.5106 26.7391 27.3803 26.9125 26.2899 27.2593C25.2261 27.6061 24.2287 28.0995 23.2979 28.7398C22.3936 29.3533 21.5824 30.1135 20.8644 31.0205C20.1463 31.9008 19.5745 32.8878 19.1489 33.9815L26.5691 11.174C26.6489 10.9073 26.7553 10.6939 26.8883 10.5338C27.0213 10.3738 27.2074 10.2938 27.4468 10.2938H31.9149Z" fill="#F3AD2E"/>
</svg>
